<?xml version="1.0" encoding="utf-8"?>
<!-- Generator: Adobe Illustrator 27.1.1, SVG Export Plug-In . SVG Version: 6.00 Build 0)  -->
<svg version="1.1" id="Layer_1" xmlns="http://www.w3.org/2000/svg" xmlns:xlink="http://www.w3.org/1999/xlink" x="0px" y="0px"
	 viewBox="0 0 360 360" style="enable-background:new 0 0 360 360;" xml:space="preserve">
<style type="text/css">
	.st0{fill:#00AEEF;}
	.st1{fill:url(#SVGID_1_);}
	.st2{fill:url(#SVGID_00000086680692058131501150000014744682147493416587_);}
</style>
<g>
	<g>
		<g>
			<g>
				<path class="st0" d="M176.4,330.7c-36.9,0-70.6-21.8-85.7-55.5c-0.4-0.9-0.4-2,0-2.9c0.4-0.9,1.3-1.6,2.3-1.9l22.2-5.9
					c0.3-0.1,0.6-0.1,0.9-0.1c1.3,0,2.5,0.7,3.1,1.9c11.1,21.5,33,34.9,57.2,34.9c35.4,0,64.3-28.8,64.3-64.3s-28.8-64.3-64.3-64.3
					c-11.5,0-22.9,3.1-32.8,9c-0.5,0.3-1.2,0.5-1.8,0.5c-0.3,0-0.6,0-0.9-0.1l-27.5-7.4c-1.2-0.3-2.2-1.3-2.5-2.5
					c-0.3-1.2,0.1-2.5,1-3.4c5.4-5.1,11.5-9.6,17.9-13.3c-15.5-13.4-24.8-33.5-24.8-54c0-39.3,32-71.3,71.3-71.3
					c39.3,0,71.3,32,71.3,71.3c0,3.8-0.3,7.8-1,11.7c-0.3,1.7-1.7,2.9-3.5,2.9h-89.9c-1.9,0-3.5-1.6-3.5-3.5V90.2
					c0-1.9,1.6-3.5,3.5-3.5h62c-6.1-16.3-21.5-27.1-39-27.1c-17.7,0-33.5,11.2-39.3,27.9c-0.4,1.1-0.7,2.3-1.1,3.5
					c-0.9,3.5-1.3,6.9-1.3,10.2s0.4,6.8,1.3,10.2c0.3,1.2,0.6,2.1,0.8,2.9c5.7,17,21.6,28.5,39.5,28.5c10.2,0,20.1-3.8,27.7-10.6
					c0.6-0.6,1.5-0.9,2.3-0.9c0.3,0,0.6,0,0.9,0.1l24.5,6.6c1.1,0.3,2,1.1,2.4,2.2c0.4,1.1,0.2,2.3-0.5,3.2
					c-3.2,4.3-6.8,8.2-10.9,11.7c29.3,16.7,47.4,47.8,47.4,81.6C270.2,288.6,228.1,330.7,176.4,330.7z"/>
				<path class="st0" d="M176.4,31.2c38.6,0,70,31.4,70,70c0,3.8-0.3,7.6-1,11.5c-0.2,1.1-1.1,1.9-2.2,1.9h-89.9
					c-1.2,0-2.3-1-2.3-2.3V90.2c0-1.2,1-2.3,2.3-2.3h63.7c-5.7-17.6-22.1-29.6-40.8-29.6c-18.2,0-34.5,11.6-40.5,28.8
					c-0.4,1.1-0.8,2.4-1.1,3.6c-0.9,3.6-1.4,7.1-1.4,10.5c0,3.4,0.5,7,1.4,10.5c0.3,1.2,0.6,2.2,0.9,3c5.9,17.6,22.2,29.4,40.7,29.4
					c10.5,0,20.7-3.9,28.6-11c0.4-0.4,1-0.6,1.5-0.6c0.2,0,0.4,0,0.6,0.1l24.5,6.6c0.7,0.2,1.3,0.7,1.5,1.4c0.2,0.7,0.1,1.5-0.3,2.1
					c-3.5,4.7-7.5,9-12.1,12.7c29.9,16.3,48.3,47.1,48.3,81.3c0,51.1-41.6,92.6-92.6,92.6c-36.4,0-69.6-21.5-84.5-54.8
					c-0.3-0.6-0.3-1.3,0-1.9c0.3-0.6,0.8-1,1.5-1.2l22.2-5.9c0.2-0.1,0.4-0.1,0.6-0.1c0.8,0,1.6,0.5,2,1.2
					c11.3,21.9,33.6,35.6,58.3,35.6c36.1,0,65.5-29.4,65.5-65.5c0-36.1-29.4-65.5-65.5-65.5c-11.8,0-23.3,3.2-33.4,9.2
					c-0.4,0.2-0.8,0.3-1.2,0.3c-0.2,0-0.4,0-0.6-0.1l-27.5-7.4c-0.8-0.2-1.4-0.8-1.6-1.6c-0.2-0.8,0-1.6,0.6-2.2
					c5.8-5.5,12.3-10.2,19.3-14c-16.2-13.2-25.7-33.3-25.7-54.2C106.3,62.6,137.7,31.2,176.4,31.2 M176.4,28.7
					c-40,0-72.6,32.5-72.6,72.6c0,20.3,8.9,40.1,23.9,53.8c-6,3.6-11.6,7.8-16.7,12.6c-1.3,1.2-1.8,3-1.3,4.6c0.4,1.7,1.7,3,3.4,3.4
					l27.5,7.4c0.4,0.1,0.8,0.2,1.2,0.2c0.9,0,1.7-0.2,2.4-0.7c9.7-5.8,20.8-8.8,32.1-8.8c34.7,0,63,28.3,63,63s-28.3,63-63,63
					c-23.7,0-45.2-13.1-56-34.2c-0.8-1.6-2.4-2.6-4.2-2.6c-0.4,0-0.8,0.1-1.2,0.2l-22.2,5.9c-1.4,0.4-2.5,1.3-3.1,2.6
					c-0.6,1.3-0.6,2.7,0,4c15.3,34.2,49.4,56.3,86.8,56.3c52.5,0,95.1-42.7,95.1-95.1c0-17.2-4.6-34.1-13.3-48.7
					c-8.1-13.6-19.5-24.9-33.2-33.1c3.6-3.3,6.9-6.9,9.7-10.8c0.9-1.3,1.2-2.9,0.7-4.4c-0.5-1.5-1.7-2.6-3.3-3l-24.5-6.6
					c-0.4-0.1-0.8-0.2-1.2-0.2c-1.2,0-2.3,0.4-3.2,1.2c-7.4,6.7-17,10.3-26.9,10.3c-17.4,0-32.8-11.1-38.3-27.6
					c-0.3-0.8-0.5-1.7-0.8-2.8c-0.9-3.4-1.3-6.7-1.3-9.9c0-3.2,0.4-6.6,1.3-9.9c0.3-1.2,0.6-2.3,1-3.4c5.7-16.2,21-27.1,38.1-27.1
					c16.3,0,30.8,9.7,37.1,24.6h-60.1c-2.6,0-4.8,2.1-4.8,4.8v22.2c0,2.6,2.1,4.8,4.8,4.8h89.9c2.3,0,4.3-1.7,4.7-4
					c0.7-4,1-8,1-11.9C248.9,61.3,216.4,28.7,176.4,28.7L176.4,28.7z"/>
			</g>
		</g>
	</g>
	<g>
		<g>
			<linearGradient id="SVGID_1_" gradientUnits="userSpaceOnUse" x1="180.3062" y1="329.7193" x2="180.3062" y2="30.9682">
				<stop  offset="0.2084" style="stop-color:#2E3192;stop-opacity:0.2"/>
				<stop  offset="0.2736" style="stop-color:#5C2B72;stop-opacity:0.379"/>
				<stop  offset="0.3441" style="stop-color:#862554;stop-opacity:0.5723"/>
				<stop  offset="0.4078" style="stop-color:#A5213F;stop-opacity:0.7472"/>
				<stop  offset="0.462" style="stop-color:#B71F32;stop-opacity:0.8956"/>
				<stop  offset="0.5" style="stop-color:#BE1E2D"/>
				<stop  offset="0.9293" style="stop-color:#BE1E2D;stop-opacity:0.1413"/>
				<stop  offset="1" style="stop-color:#BE1E2D;stop-opacity:0"/>
			</linearGradient>
			<path class="st1" d="M176.4,33.5c37.4,0,67.8,30.3,67.8,67.8c0,3.8-0.3,7.5-0.9,11.1h-3.4h-19.7H208h-32h-22.7V90.2h66.7
				c-5-19.6-22.6-34.1-43.8-34.1c-19.7,0-36.5,12.7-42.6,30.3c-0.4,1.2-0.8,2.5-1.1,3.8c-0.9,3.6-1.4,7.3-1.4,11.1s0.5,7.5,1.4,11.1
				c0.3,1.1,0.6,2.1,0.9,3.2c6,17.9,22.9,30.9,42.8,30.9c11.6,0,22.1-4.4,30.1-11.5l24.5,6.6c-4.1,5.5-8.9,10.3-14.4,14.4
				c29.8,14.8,50.2,45.5,50.2,81c0,49.9-40.5,90.4-90.4,90.4c-36.7,0-68.4-21.9-82.5-53.4l22.2-5.9c11.3,21.8,34,36.8,60.3,36.8
				c37.4,0,67.8-30.3,67.8-67.8c0-37.4-30.3-67.8-67.8-67.8c-12.6,0-24.4,3.5-34.5,9.5l-27.5-7.4c6.5-6.1,13.8-11.3,21.9-15.3
				c-16.8-12.3-27.6-32.2-27.6-54.6C108.6,63.8,138.9,33.5,176.4,33.5 M176.4,31c-38.8,0-70.3,31.5-70.3,70.3
				c0,11.2,2.7,22.3,7.8,32.2c4.3,8.4,10.4,15.9,17.7,22c-6.9,3.8-13.3,8.4-19,13.9c-0.7,0.6-0.9,1.6-0.7,2.4
				c0.2,0.9,0.9,1.6,1.8,1.8l27.5,7.4c0.2,0.1,0.4,0.1,0.6,0.1c0.4,0,0.9-0.1,1.3-0.4c10-6,21.5-9.1,33.3-9.1
				c36,0,65.3,29.3,65.3,65.3c0,36-29.3,65.3-65.3,65.3c-24.5,0-46.8-13.6-58-35.4c-0.4-0.9-1.3-1.4-2.2-1.4c-0.2,0-0.4,0-0.7,0.1
				l-22.2,5.9c-0.7,0.2-1.3,0.7-1.6,1.3s-0.3,1.4,0,2.1c15,33.4,48.2,54.9,84.8,54.9c51.2,0,92.9-41.7,92.9-92.9
				c0-17.6-5-34.8-14.3-49.6c-8.4-13.3-20-24.2-33.8-31.8c4.4-3.7,8.4-7.8,11.8-12.5c0.5-0.7,0.6-1.5,0.3-2.3
				c-0.3-0.8-0.9-1.4-1.7-1.6l-24.5-6.6c-0.2-0.1-0.4-0.1-0.6-0.1c-0.6,0-1.2,0.2-1.7,0.6c-7.9,7-17.9,10.9-28.4,10.9
				c-18.4,0-34.6-11.7-40.5-29.2c-0.3-0.8-0.5-1.8-0.9-3c-0.9-3.5-1.4-7.1-1.4-10.5c0-3.4,0.5-6.9,1.4-10.5c0.3-1.3,0.7-2.5,1.1-3.6
				c6-17.1,22.2-28.6,40.2-28.6c18.4,0,34.6,11.8,40.4,29.1h-63.4c-1.4,0-2.5,1.1-2.5,2.5v22.2c0,1.4,1.1,2.5,2.5,2.5h22.7h32h12.1
				h19.7h3.4c1.2,0,2.3-0.9,2.5-2.1c0.6-3.8,1-7.7,1-11.5C246.7,62.5,215.1,31,176.4,31L176.4,31z"/>
		</g>
	</g>
	<g>
		<g>
			
				<linearGradient id="SVGID_00000094616441745440738760000018440897300064185782_" gradientUnits="userSpaceOnUse" x1="180.3062" y1="329.7193" x2="180.3062" y2="30.9682">
				<stop  offset="0.5" style="stop-color:#F9ED32;stop-opacity:0"/>
				<stop  offset="0.9998" style="stop-color:#F9ED32"/>
			</linearGradient>
			<path style="fill:url(#SVGID_00000094616441745440738760000018440897300064185782_);" d="M176.4,33.5c37.4,0,67.8,30.3,67.8,67.8
				c0,3.8-0.3,7.5-0.9,11.1h-3.4h-19.7H208h-32h-22.7V90.2h66.7c-5-19.6-22.6-34.1-43.8-34.1c-19.7,0-36.5,12.7-42.6,30.3
				c-0.4,1.2-0.8,2.5-1.1,3.8c-0.9,3.6-1.4,7.3-1.4,11.1s0.5,7.5,1.4,11.1c0.3,1.1,0.6,2.1,0.9,3.2c6,17.9,22.9,30.9,42.8,30.9
				c11.6,0,22.1-4.4,30.1-11.5l24.5,6.6c-4.1,5.5-8.9,10.3-14.4,14.4c29.8,14.8,50.2,45.5,50.2,81c0,49.9-40.5,90.4-90.4,90.4
				c-36.7,0-68.4-21.9-82.5-53.4l22.2-5.9c11.3,21.8,34,36.8,60.3,36.8c37.4,0,67.8-30.3,67.8-67.8c0-37.4-30.3-67.8-67.8-67.8
				c-12.6,0-24.4,3.5-34.5,9.5l-27.5-7.4c6.5-6.1,13.8-11.3,21.9-15.3c-16.8-12.3-27.6-32.2-27.6-54.6
				C108.6,63.8,138.9,33.5,176.4,33.5 M176.4,31c-38.8,0-70.3,31.5-70.3,70.3c0,11.2,2.7,22.3,7.8,32.2c4.3,8.4,10.4,15.9,17.7,22
				c-6.9,3.8-13.3,8.4-19,13.9c-0.7,0.6-0.9,1.6-0.7,2.4c0.2,0.9,0.9,1.6,1.8,1.8l27.5,7.4c0.2,0.1,0.4,0.1,0.6,0.1
				c0.4,0,0.9-0.1,1.3-0.4c10-6,21.5-9.1,33.3-9.1c36,0,65.3,29.3,65.3,65.3c0,36-29.3,65.3-65.3,65.3c-24.5,0-46.8-13.6-58-35.4
				c-0.4-0.9-1.3-1.4-2.2-1.4c-0.2,0-0.4,0-0.7,0.1l-22.2,5.9c-0.7,0.2-1.3,0.7-1.6,1.3s-0.3,1.4,0,2.1c15,33.4,48.2,54.9,84.8,54.9
				c51.2,0,92.9-41.7,92.9-92.9c0-17.6-5-34.8-14.3-49.6c-8.4-13.3-20-24.2-33.8-31.8c4.4-3.7,8.4-7.8,11.8-12.5
				c0.5-0.7,0.6-1.5,0.3-2.3c-0.3-0.8-0.9-1.4-1.7-1.6l-24.5-6.6c-0.2-0.1-0.4-0.1-0.6-0.1c-0.6,0-1.2,0.2-1.7,0.6
				c-7.9,7-17.9,10.9-28.4,10.9c-18.4,0-34.6-11.7-40.5-29.2c-0.3-0.8-0.5-1.8-0.9-3c-0.9-3.5-1.4-7.1-1.4-10.5
				c0-3.4,0.5-6.9,1.4-10.5c0.3-1.3,0.7-2.5,1.1-3.6c6-17.1,22.2-28.6,40.2-28.6c18.4,0,34.6,11.8,40.4,29.1h-63.4
				c-1.4,0-2.5,1.1-2.5,2.5v22.2c0,1.4,1.1,2.5,2.5,2.5h22.7h32h12.1h19.7h3.4c1.2,0,2.3-0.9,2.5-2.1c0.6-3.8,1-7.7,1-11.5
				C246.7,62.5,215.1,31,176.4,31L176.4,31z"/>
		</g>
	</g>
</g>
</svg>
